<?xml version="1.0" standalone="no"?>
<!DOCTYPE svg PUBLIC "-//W3C//DTD SVG 20010904//EN"
 "http://www.w3.org/TR/2001/REC-SVG-20010904/DTD/svg10.dtd">
<svg version="1.0" xmlns="http://www.w3.org/2000/svg"
 width="260.000000pt" height="260.000000pt" viewBox="0 0 260.000000 260.000000"
 preserveAspectRatio="xMidYMid meet">
<metadata>
Created by potrace 1.11, written by Peter Selinger 2001-2013
</metadata>
<g transform="translate(0.000000,260.000000) scale(0.100000,-0.100000)"
fill="#000000" stroke="none">
<path d="M0 1300 l0 -1300 1300 0 1300 0 0 1300 0 1300 -1300 0 -1300 0 0
-1300z m625 776 c35 -15 65 -59 65 -96 0 -30 -26 -76 -47 -84 -15 -6 -13 -10
15 -27 65 -42 64 -144 -1 -193 -26 -19 -44 -21 -193 -24 l-164 -3 0 220 0 221
145 0 c103 0 156 -4 180 -14z m275 -206 l0 -220 -65 0 -65 0 0 220 0 220 65 0
65 0 0 -220z m351 208 c55 -16 114 -70 134 -123 40 -104 -1 -222 -95 -275 -41
-23 -58 -25 -182 -28 l-138 -4 0 221 0 221 121 0 c67 0 139 -5 160 -12z m579
-38 l0 -50 -120 0 -120 0 0 -35 0 -35 110 0 110 0 0 -45 0 -45 -110 0 -110 0
0 -40 0 -40 120 0 120 0 0 -50 0 -50 -185 0 -185 0 0 220 0 220 185 0 185 0 0
-50z m272 -57 l83 -108 3 108 3 107 64 0 65 0 0 -220 0 -220 -58 0 -59 0 -89
115 -89 115 -3 -115 -3 -115 -64 0 -65 0 0 220 0 220 64 0 65 0 83 -107z
m-478 -520 c-36 -60 -70 -112 -74 -118 -4 -5 -29 -50 -55 -100 -26 -49 -59
-109 -72 -132 l-25 -43 -113 0 -114 0 -47 88 c-26 48 -89 157 -140 243 -52 87
-94 160 -94 163 0 3 180 6 400 6 l400 0 -66 -107z m-954 -643 l0 -50 -60 0
-60 0 0 -155 0 -155 -65 0 -65 0 0 155 0 155 -60 0 -60 0 0 50 0 50 185 0 185
0 0 -50z m314 36 c93 -39 112 -165 34 -231 l-30 -26 38 -57 c22 -31 43 -62 47
-69 6 -10 -9 -13 -65 -13 l-73 0 -39 60 c-24 39 -45 60 -57 60 -17 0 -19 -8
-19 -60 l0 -60 -65 0 -65 0 0 205 0 205 130 0 c88 0 141 -4 164 -14z m226
-110 c0 -69 4 -136 10 -151 13 -34 55 -50 92 -34 38 15 48 58 48 197 l0 112
60 0 60 0 0 -143 c0 -128 -2 -147 -22 -187 -34 -67 -89 -92 -190 -88 -82 3
-111 17 -152 72 -19 24 -21 44 -24 187 l-3 159 60 0 61 0 0 -124z m480 49 l44
-75 48 75 48 75 65 0 65 0 0 -205 0 -205 -60 0 -60 0 0 113 0 112 -50 -78
c-27 -42 -52 -77 -55 -77 -3 0 -28 35 -55 78 l-50 77 0 -112 0 -113 -60 0 -60
0 0 205 0 205 68 0 68 0 44 -75z m583 61 c54 -23 80 -59 85 -118 7 -96 -59
-158 -170 -158 l-58 0 0 -60 0 -60 -65 0 -65 0 0 205 0 205 120 0 c80 0 132
-5 153 -14z"/>
<path d="M430 1955 c0 -35 0 -35 46 -35 51 0 84 14 84 35 0 21 -33 35 -84 35
-46 0 -46 0 -46 -35z"/>
<path d="M430 1790 l0 -42 66 4 c42 3 69 9 75 19 22 35 0 52 -75 57 l-66 4 0
-42z"/>
<path d="M1110 1870 l0 -120 30 0 c48 0 97 25 114 59 46 88 -13 181 -114 181
l-30 0 0 -120z"/>
<path d="M820 720 l0 -50 41 0 c56 0 79 14 79 50 0 36 -23 50 -79 50 l-41 0 0
-50z"/>
<path d="M2130 720 l0 -50 35 0 c34 0 75 27 75 50 0 23 -41 50 -75 50 l-35 0
0 -50z"/>
</g>
</svg>
